<?xml version="1.0" encoding="utf-8"?>
<!-- Generator: Adobe Illustrator 16.0.5, SVG Export Plug-In . SVG Version: 6.00 Build 0)  -->
<!DOCTYPE svg PUBLIC "-//W3C//DTD SVG 1.1//EN" "http://www.w3.org/Graphics/SVG/1.1/DTD/svg11.dtd">
<svg version="1.1" id="Ebene_3" xmlns="http://www.w3.org/2000/svg" xmlns:xlink="http://www.w3.org/1999/xlink" x="0px" y="0px"
	 width="905.499px" height="269.292px" viewBox="0 0 905.499 269.292" enable-background="new 0 0 905.499 269.292"
	 xml:space="preserve">
<path fill="none" stroke="#0000FF" stroke-width="0.0283" stroke-miterlimit="10" d="M17.008,8.504
	c-4.698,0-8.504,3.806-8.504,8.504"/>
<path fill="none" stroke="#0000FF" stroke-width="0.0283" stroke-miterlimit="10" d="M80.504,17.008
	c0-4.698-3.806-8.504-8.503-8.504"/>
<path fill="none" stroke="#0000FF" stroke-width="0.0283" stroke-miterlimit="10" d="M72,99.212c4.697,0,8.503-3.806,8.503-8.504"/>
<path fill="none" stroke="#0000FF" stroke-width="0.0283" stroke-miterlimit="10" d="M8.504,90.708c0,4.698,3.806,8.504,8.504,8.504
	"/>
<path fill="none" stroke="#0000FF" stroke-width="0.0283" stroke-miterlimit="10" d="M76.252,28.346
	c0-2.349-1.903-4.252-4.251-4.252c-2.35,0-4.252,1.903-4.252,4.252c0,2.35,1.903,4.252,4.252,4.252
	C74.349,32.598,76.252,30.695,76.252,28.346"/>
<path fill="none" stroke="#0000FF" stroke-width="0.0283" stroke-miterlimit="10" d="M21.26,79.369c0-2.349-1.903-4.252-4.252-4.252
	s-4.252,1.903-4.252,4.252c0,2.35,1.903,4.252,4.252,4.252S21.26,81.719,21.26,79.369"/>
<path fill="none" stroke="#0000FF" stroke-width="0.0283" stroke-miterlimit="10" d="M39.897,19.842
	c0-3.719-3.013-6.732-6.732-6.732c-3.719,0-6.732,3.014-6.732,6.732s3.013,6.732,6.732,6.732
	C36.884,26.574,39.897,23.561,39.897,19.842"/>
<line fill="none" stroke="#0000FF" stroke-width="0.0283" stroke-miterlimit="10" x1="17.008" y1="99.212" x2="72" y2="99.212"/>
<path fill="none" stroke="#0000FF" stroke-width="0.0283" stroke-miterlimit="10" d="M62.575,19.842
	c0-3.719-3.014-6.732-6.732-6.732c-3.719,0-6.732,3.014-6.732,6.732s3.013,6.732,6.732,6.732
	C59.562,26.574,62.575,23.561,62.575,19.842"/>
<path fill="none" stroke="#0000FF" stroke-width="0.0283" stroke-miterlimit="10" d="M39.897,42.52c0-3.719-3.013-6.732-6.732-6.732
	c-3.719,0-6.732,3.014-6.732,6.732s3.013,6.732,6.732,6.732C36.884,49.252,39.897,46.238,39.897,42.52"/>
<path fill="none" stroke="#0000FF" stroke-width="0.0283" stroke-miterlimit="10" d="M62.575,42.52c0-3.719-3.014-6.732-6.732-6.732
	c-3.719,0-6.732,3.014-6.732,6.732s3.013,6.732,6.732,6.732C59.562,49.252,62.575,46.238,62.575,42.52"/>
<path fill="none" stroke="#0000FF" stroke-width="0.0283" stroke-miterlimit="10" d="M39.897,65.196c0-3.72-3.013-6.732-6.732-6.732
	c-3.719,0-6.732,3.013-6.732,6.732c0,3.719,3.013,6.731,6.732,6.731C36.884,71.928,39.897,68.915,39.897,65.196"/>
<path fill="none" stroke="#0000FF" stroke-width="0.0283" stroke-miterlimit="10" d="M62.575,65.196c0-3.72-3.014-6.732-6.732-6.732
	c-3.719,0-6.732,3.013-6.732,6.732c0,3.719,3.013,6.731,6.732,6.731C59.562,71.928,62.575,68.915,62.575,65.196"/>
<path fill="none" stroke="#0000FF" stroke-width="0.0283" stroke-miterlimit="10" d="M39.897,87.873
	c0-3.719-3.013-6.732-6.732-6.732c-3.719,0-6.732,3.014-6.732,6.732c0,3.72,3.013,6.732,6.732,6.732
	C36.884,94.605,39.897,91.593,39.897,87.873"/>
<path fill="none" stroke="#0000FF" stroke-width="0.0283" stroke-miterlimit="10" d="M62.575,87.873
	c0-3.719-3.014-6.732-6.732-6.732c-3.719,0-6.732,3.014-6.732,6.732c0,3.72,3.013,6.732,6.732,6.732
	C59.562,94.605,62.575,91.593,62.575,87.873"/>
<path fill="none" stroke="#0000FF" stroke-width="0.0283" stroke-miterlimit="10" d="M89.008,8.504
	c-4.697,0-8.504,3.806-8.504,8.504"/>
<path fill="none" stroke="#0000FF" stroke-width="0.0283" stroke-miterlimit="10" d="M152.504,17.008
	c0-4.698-3.806-8.504-8.504-8.504"/>
<path fill="none" stroke="#0000FF" stroke-width="0.0283" stroke-miterlimit="10" d="M144,99.212c4.698,0,8.504-3.806,8.504-8.504"
	/>
<path fill="none" stroke="#0000FF" stroke-width="0.0283" stroke-miterlimit="10" d="M80.504,90.708
	c0,4.698,3.807,8.504,8.504,8.504"/>
<path fill="none" stroke="#0000FF" stroke-width="0.0283" stroke-miterlimit="10" d="M148.252,28.346
	c0-2.349-1.903-4.252-4.252-4.252s-4.252,1.903-4.252,4.252c0,2.35,1.903,4.252,4.252,4.252S148.252,30.695,148.252,28.346"/>
<path fill="none" stroke="#0000FF" stroke-width="0.0283" stroke-miterlimit="10" d="M93.26,79.369c0-2.349-1.903-4.252-4.252-4.252
	c-2.349,0-4.251,1.903-4.251,4.252c0,2.35,1.903,4.252,4.251,4.252C91.357,83.621,93.26,81.719,93.26,79.369"/>
<path fill="none" stroke="#0000FF" stroke-width="0.0283" stroke-miterlimit="10" d="M111.898,19.842
	c0-3.719-3.013-6.732-6.732-6.732s-6.732,3.014-6.732,6.732s3.013,6.732,6.732,6.732S111.898,23.561,111.898,19.842"/>
<line fill="none" stroke="#0000FF" stroke-width="0.0283" stroke-miterlimit="10" x1="89.008" y1="8.504" x2="144" y2="8.504"/>
<path fill="none" stroke="#0000FF" stroke-width="0.0283" stroke-miterlimit="10" d="M134.575,19.842
	c0-3.719-3.013-6.732-6.732-6.732c-3.719,0-6.732,3.014-6.732,6.732s3.013,6.732,6.732,6.732
	C131.562,26.574,134.575,23.561,134.575,19.842"/>
<path fill="none" stroke="#0000FF" stroke-width="0.0283" stroke-miterlimit="10" d="M111.898,42.52
	c0-3.719-3.013-6.732-6.732-6.732s-6.732,3.014-6.732,6.732s3.013,6.732,6.732,6.732S111.898,46.238,111.898,42.52"/>
<path fill="none" stroke="#0000FF" stroke-width="0.0283" stroke-miterlimit="10" d="M134.575,42.52
	c0-3.719-3.013-6.732-6.732-6.732c-3.719,0-6.732,3.014-6.732,6.732s3.013,6.732,6.732,6.732
	C131.562,49.252,134.575,46.238,134.575,42.52"/>
<path fill="none" stroke="#0000FF" stroke-width="0.0283" stroke-miterlimit="10" d="M111.898,65.196
	c0-3.72-3.013-6.732-6.732-6.732s-6.732,3.013-6.732,6.732c0,3.719,3.013,6.731,6.732,6.731S111.898,68.915,111.898,65.196"/>
<path fill="none" stroke="#0000FF" stroke-width="0.0283" stroke-miterlimit="10" d="M134.575,65.196
	c0-3.72-3.013-6.732-6.732-6.732c-3.719,0-6.732,3.013-6.732,6.732c0,3.719,3.013,6.731,6.732,6.731
	C131.562,71.928,134.575,68.915,134.575,65.196"/>
<path fill="none" stroke="#0000FF" stroke-width="0.0283" stroke-miterlimit="10" d="M111.898,87.873
	c0-3.719-3.013-6.732-6.732-6.732s-6.732,3.014-6.732,6.732c0,3.72,3.013,6.732,6.732,6.732S111.898,91.593,111.898,87.873"/>
<path fill="none" stroke="#0000FF" stroke-width="0.0283" stroke-miterlimit="10" d="M134.575,87.873
	c0-3.719-3.013-6.732-6.732-6.732c-3.719,0-6.732,3.014-6.732,6.732c0,3.72,3.013,6.732,6.732,6.732
	C131.562,94.605,134.575,91.593,134.575,87.873"/>
<path fill="none" stroke="#0000FF" stroke-width="0.0283" stroke-miterlimit="10" d="M161.008,8.504
	c-4.698,0-8.504,3.806-8.504,8.504"/>
<path fill="none" stroke="#0000FF" stroke-width="0.0283" stroke-miterlimit="10" d="M224.503,17.008
	c0-4.698-3.806-8.504-8.503-8.504"/>
<path fill="none" stroke="#0000FF" stroke-width="0.0283" stroke-miterlimit="10" d="M216,99.212c4.697,0,8.503-3.806,8.503-8.504"
	/>
<path fill="none" stroke="#0000FF" stroke-width="0.0283" stroke-miterlimit="10" d="M152.504,90.708
	c0,4.698,3.806,8.504,8.504,8.504"/>
<path fill="none" stroke="#0000FF" stroke-width="0.0283" stroke-miterlimit="10" d="M220.251,28.346
	c0-2.349-1.903-4.252-4.251-4.252c-2.35,0-4.252,1.903-4.252,4.252c0,2.35,1.903,4.252,4.252,4.252
	C218.349,32.598,220.251,30.695,220.251,28.346"/>
<path fill="none" stroke="#0000FF" stroke-width="0.0283" stroke-miterlimit="10" d="M165.259,79.369
	c0-2.349-1.902-4.252-4.251-4.252c-2.35,0-4.252,1.903-4.252,4.252c0,2.35,1.903,4.252,4.252,4.252
	C163.357,83.621,165.259,81.719,165.259,79.369"/>
<path fill="none" stroke="#0000FF" stroke-width="0.0283" stroke-miterlimit="10" d="M183.897,19.842
	c0-3.719-3.013-6.732-6.732-6.732c-3.719,0-6.731,3.014-6.731,6.732s3.013,6.732,6.731,6.732
	C180.884,26.574,183.897,23.561,183.897,19.842"/>
<line fill="none" stroke="#0000FF" stroke-width="0.0283" stroke-miterlimit="10" x1="161.008" y1="99.212" x2="216" y2="99.212"/>
<path fill="none" stroke="#0000FF" stroke-width="0.0283" stroke-miterlimit="10" d="M206.575,19.842
	c0-3.719-3.014-6.732-6.732-6.732c-3.719,0-6.732,3.014-6.732,6.732s3.013,6.732,6.732,6.732
	C203.561,26.574,206.575,23.561,206.575,19.842"/>
<path fill="none" stroke="#0000FF" stroke-width="0.0283" stroke-miterlimit="10" d="M183.897,42.52
	c0-3.719-3.013-6.732-6.732-6.732c-3.719,0-6.731,3.014-6.731,6.732s3.013,6.732,6.731,6.732
	C180.884,49.252,183.897,46.238,183.897,42.52"/>
<path fill="none" stroke="#0000FF" stroke-width="0.0283" stroke-miterlimit="10" d="M206.575,42.52
	c0-3.719-3.014-6.732-6.732-6.732c-3.719,0-6.732,3.014-6.732,6.732s3.013,6.732,6.732,6.732
	C203.561,49.252,206.575,46.238,206.575,42.52"/>
<path fill="none" stroke="#0000FF" stroke-width="0.0283" stroke-miterlimit="10" d="M183.897,65.196
	c0-3.72-3.013-6.732-6.732-6.732c-3.719,0-6.731,3.013-6.731,6.732c0,3.719,3.013,6.731,6.731,6.731
	C180.884,71.928,183.897,68.915,183.897,65.196"/>
<path fill="none" stroke="#0000FF" stroke-width="0.0283" stroke-miterlimit="10" d="M206.575,65.196
	c0-3.72-3.014-6.732-6.732-6.732c-3.719,0-6.732,3.013-6.732,6.732c0,3.719,3.013,6.731,6.732,6.731
	C203.561,71.928,206.575,68.915,206.575,65.196"/>
<path fill="none" stroke="#0000FF" stroke-width="0.0283" stroke-miterlimit="10" d="M183.897,87.873
	c0-3.719-3.013-6.732-6.732-6.732c-3.719,0-6.731,3.014-6.731,6.732c0,3.72,3.013,6.732,6.731,6.732
	C180.884,94.605,183.897,91.593,183.897,87.873"/>
<path fill="none" stroke="#0000FF" stroke-width="0.0283" stroke-miterlimit="10" d="M206.575,87.873
	c0-3.719-3.014-6.732-6.732-6.732c-3.719,0-6.732,3.014-6.732,6.732c0,3.72,3.013,6.732,6.732,6.732
	C203.561,94.605,206.575,91.593,206.575,87.873"/>
<path fill="none" stroke="#0000FF" stroke-width="0.0283" stroke-miterlimit="10" d="M233.007,8.504
	c-4.697,0-8.504,3.806-8.504,8.504"/>
<path fill="none" stroke="#0000FF" stroke-width="0.0283" stroke-miterlimit="10" d="M296.504,17.008
	c0-4.698-3.806-8.504-8.504-8.504"/>
<path fill="none" stroke="#0000FF" stroke-width="0.0283" stroke-miterlimit="10" d="M288,99.212c4.698,0,8.504-3.806,8.504-8.504"
	/>
<path fill="none" stroke="#0000FF" stroke-width="0.0283" stroke-miterlimit="10" d="M224.503,90.708
	c0,4.698,3.807,8.504,8.504,8.504"/>
<path fill="none" stroke="#0000FF" stroke-width="0.0283" stroke-miterlimit="10" d="M292.252,28.346
	c0-2.349-1.903-4.252-4.252-4.252c-2.349,0-4.252,1.903-4.252,4.252c0,2.35,1.903,4.252,4.252,4.252
	C290.349,32.598,292.252,30.695,292.252,28.346"/>
<path fill="none" stroke="#0000FF" stroke-width="0.0283" stroke-miterlimit="10" d="M237.259,79.369
	c0-2.349-1.903-4.252-4.252-4.252c-2.349,0-4.251,1.903-4.251,4.252c0,2.35,1.903,4.252,4.251,4.252
	C235.356,83.621,237.259,81.719,237.259,79.369"/>
<path fill="none" stroke="#0000FF" stroke-width="0.0283" stroke-miterlimit="10" d="M255.897,19.842
	c0-3.719-3.013-6.732-6.732-6.732s-6.732,3.014-6.732,6.732s3.013,6.732,6.732,6.732S255.897,23.561,255.897,19.842"/>
<line fill="none" stroke="#0000FF" stroke-width="0.0283" stroke-miterlimit="10" x1="233.007" y1="8.504" x2="288" y2="8.504"/>
<path fill="none" stroke="#0000FF" stroke-width="0.0283" stroke-miterlimit="10" d="M278.574,19.842
	c0-3.719-3.013-6.732-6.732-6.732s-6.732,3.014-6.732,6.732s3.013,6.732,6.732,6.732S278.574,23.561,278.574,19.842"/>
<path fill="none" stroke="#0000FF" stroke-width="0.0283" stroke-miterlimit="10" d="M255.897,42.52
	c0-3.719-3.013-6.732-6.732-6.732s-6.732,3.014-6.732,6.732s3.013,6.732,6.732,6.732S255.897,46.238,255.897,42.52"/>
<path fill="none" stroke="#0000FF" stroke-width="0.0283" stroke-miterlimit="10" d="M278.574,42.52
	c0-3.719-3.013-6.732-6.732-6.732s-6.732,3.014-6.732,6.732s3.013,6.732,6.732,6.732S278.574,46.238,278.574,42.52"/>
<path fill="none" stroke="#0000FF" stroke-width="0.0283" stroke-miterlimit="10" d="M255.897,65.196
	c0-3.72-3.013-6.732-6.732-6.732s-6.732,3.013-6.732,6.732c0,3.719,3.013,6.731,6.732,6.731S255.897,68.915,255.897,65.196"/>
<path fill="none" stroke="#0000FF" stroke-width="0.0283" stroke-miterlimit="10" d="M278.574,65.196
	c0-3.72-3.013-6.732-6.732-6.732s-6.732,3.013-6.732,6.732c0,3.719,3.013,6.731,6.732,6.731S278.574,68.915,278.574,65.196"/>
<path fill="none" stroke="#0000FF" stroke-width="0.0283" stroke-miterlimit="10" d="M255.897,87.873
	c0-3.719-3.013-6.732-6.732-6.732s-6.732,3.014-6.732,6.732c0,3.72,3.013,6.732,6.732,6.732S255.897,91.593,255.897,87.873"/>
<path fill="none" stroke="#0000FF" stroke-width="0.0283" stroke-miterlimit="10" d="M278.574,87.873
	c0-3.719-3.013-6.732-6.732-6.732s-6.732,3.014-6.732,6.732c0,3.72,3.013,6.732,6.732,6.732S278.574,91.593,278.574,87.873"/>
<path fill="none" stroke="#0000FF" stroke-width="0.0283" stroke-miterlimit="10" d="M305.008,8.504
	c-4.698,0-8.504,3.806-8.504,8.504"/>
<path fill="none" stroke="#0000FF" stroke-width="0.0283" stroke-miterlimit="10" d="M368.503,17.008
	c0-4.698-3.806-8.504-8.503-8.504"/>
<path fill="none" stroke="#0000FF" stroke-width="0.0283" stroke-miterlimit="10" d="M360,99.212c4.697,0,8.503-3.806,8.503-8.504"
	/>
<path fill="none" stroke="#0000FF" stroke-width="0.0283" stroke-miterlimit="10" d="M296.504,90.708
	c0,4.698,3.806,8.504,8.504,8.504"/>
<path fill="none" stroke="#0000FF" stroke-width="0.0283" stroke-miterlimit="10" d="M364.251,28.346
	c0-2.349-1.903-4.252-4.251-4.252c-2.35,0-4.252,1.903-4.252,4.252c0,2.35,1.903,4.252,4.252,4.252
	C362.349,32.598,364.251,30.695,364.251,28.346"/>
<path fill="none" stroke="#0000FF" stroke-width="0.0283" stroke-miterlimit="10" d="M309.26,79.369
	c0-2.349-1.903-4.252-4.252-4.252c-2.349,0-4.252,1.903-4.252,4.252c0,2.35,1.903,4.252,4.252,4.252
	C307.356,83.621,309.26,81.719,309.26,79.369"/>
<path fill="none" stroke="#0000FF" stroke-width="0.0283" stroke-miterlimit="10" d="M327.897,19.842
	c0-3.719-3.013-6.732-6.732-6.732c-3.719,0-6.732,3.014-6.732,6.732s3.013,6.732,6.732,6.732
	C324.884,26.574,327.897,23.561,327.897,19.842"/>
<line fill="none" stroke="#0000FF" stroke-width="0.0283" stroke-miterlimit="10" x1="305.008" y1="99.212" x2="360" y2="99.212"/>
<path fill="none" stroke="#0000FF" stroke-width="0.0283" stroke-miterlimit="10" d="M350.575,19.842
	c0-3.719-3.014-6.732-6.732-6.732c-3.719,0-6.732,3.014-6.732,6.732s3.013,6.732,6.732,6.732
	C347.561,26.574,350.575,23.561,350.575,19.842"/>
<path fill="none" stroke="#0000FF" stroke-width="0.0283" stroke-miterlimit="10" d="M327.897,42.52
	c0-3.719-3.013-6.732-6.732-6.732c-3.719,0-6.732,3.014-6.732,6.732s3.013,6.732,6.732,6.732
	C324.884,49.252,327.897,46.238,327.897,42.52"/>
<path fill="none" stroke="#0000FF" stroke-width="0.0283" stroke-miterlimit="10" d="M350.575,42.52
	c0-3.719-3.014-6.732-6.732-6.732c-3.719,0-6.732,3.014-6.732,6.732s3.013,6.732,6.732,6.732
	C347.561,49.252,350.575,46.238,350.575,42.52"/>
<path fill="none" stroke="#0000FF" stroke-width="0.0283" stroke-miterlimit="10" d="M327.897,65.196
	c0-3.72-3.013-6.732-6.732-6.732c-3.719,0-6.732,3.013-6.732,6.732c0,3.719,3.013,6.731,6.732,6.731
	C324.884,71.928,327.897,68.915,327.897,65.196"/>
<path fill="none" stroke="#0000FF" stroke-width="0.0283" stroke-miterlimit="10" d="M350.575,65.196
	c0-3.72-3.014-6.732-6.732-6.732c-3.719,0-6.732,3.013-6.732,6.732c0,3.719,3.013,6.731,6.732,6.731
	C347.561,71.928,350.575,68.915,350.575,65.196"/>
<path fill="none" stroke="#0000FF" stroke-width="0.0283" stroke-miterlimit="10" d="M327.897,87.873
	c0-3.719-3.013-6.732-6.732-6.732c-3.719,0-6.732,3.014-6.732,6.732c0,3.72,3.013,6.732,6.732,6.732
	C324.884,94.605,327.897,91.593,327.897,87.873"/>
<path fill="none" stroke="#0000FF" stroke-width="0.0283" stroke-miterlimit="10" d="M350.575,87.873
	c0-3.719-3.014-6.732-6.732-6.732c-3.719,0-6.732,3.014-6.732,6.732c0,3.72,3.013,6.732,6.732,6.732
	C347.561,94.605,350.575,91.593,350.575,87.873"/>
<path fill="none" stroke="#0000FF" stroke-width="0.0283" stroke-miterlimit="10" d="M377.007,8.504
	c-4.697,0-8.504,3.806-8.504,8.504"/>
<path fill="none" stroke="#0000FF" stroke-width="0.0283" stroke-miterlimit="10" d="M440.504,17.008
	c0-4.698-3.806-8.504-8.504-8.504"/>
<path fill="none" stroke="#0000FF" stroke-width="0.0283" stroke-miterlimit="10" d="M432,99.212c4.698,0,8.504-3.806,8.504-8.504"
	/>
<path fill="none" stroke="#0000FF" stroke-width="0.0283" stroke-miterlimit="10" d="M368.503,90.708
	c0,4.698,3.807,8.504,8.504,8.504"/>
<path fill="none" stroke="#0000FF" stroke-width="0.0283" stroke-miterlimit="10" d="M436.251,28.346
	c0-2.349-1.903-4.252-4.252-4.252c-2.349,0-4.251,1.903-4.251,4.252c0,2.35,1.903,4.252,4.251,4.252
	C434.349,32.598,436.251,30.695,436.251,28.346"/>
<path fill="none" stroke="#0000FF" stroke-width="0.0283" stroke-miterlimit="10" d="M381.259,79.369
	c0-2.349-1.903-4.252-4.252-4.252c-2.349,0-4.251,1.903-4.251,4.252c0,2.35,1.903,4.252,4.251,4.252
	C379.356,83.621,381.259,81.719,381.259,79.369"/>
<path fill="none" stroke="#0000FF" stroke-width="0.0283" stroke-miterlimit="10" d="M399.897,19.842
	c0-3.719-3.013-6.732-6.732-6.732s-6.732,3.014-6.732,6.732s3.013,6.732,6.732,6.732S399.897,23.561,399.897,19.842"/>
<line fill="none" stroke="#0000FF" stroke-width="0.0283" stroke-miterlimit="10" x1="377.007" y1="8.504" x2="432" y2="8.504"/>
<path fill="none" stroke="#0000FF" stroke-width="0.0283" stroke-miterlimit="10" d="M422.574,19.842
	c0-3.719-3.013-6.732-6.732-6.732s-6.732,3.014-6.732,6.732s3.013,6.732,6.732,6.732S422.574,23.561,422.574,19.842"/>
<path fill="none" stroke="#0000FF" stroke-width="0.0283" stroke-miterlimit="10" d="M399.897,42.52
	c0-3.719-3.013-6.732-6.732-6.732s-6.732,3.014-6.732,6.732s3.013,6.732,6.732,6.732S399.897,46.238,399.897,42.52"/>
<path fill="none" stroke="#0000FF" stroke-width="0.0283" stroke-miterlimit="10" d="M422.574,42.52
	c0-3.719-3.013-6.732-6.732-6.732s-6.732,3.014-6.732,6.732s3.013,6.732,6.732,6.732S422.574,46.238,422.574,42.52"/>
<path fill="none" stroke="#0000FF" stroke-width="0.0283" stroke-miterlimit="10" d="M399.897,65.196
	c0-3.72-3.013-6.732-6.732-6.732s-6.732,3.013-6.732,6.732c0,3.719,3.013,6.731,6.732,6.731S399.897,68.915,399.897,65.196"/>
<path fill="none" stroke="#0000FF" stroke-width="0.0283" stroke-miterlimit="10" d="M422.574,65.196
	c0-3.72-3.013-6.732-6.732-6.732s-6.732,3.013-6.732,6.732c0,3.719,3.013,6.731,6.732,6.731S422.574,68.915,422.574,65.196"/>
<path fill="none" stroke="#0000FF" stroke-width="0.0283" stroke-miterlimit="10" d="M399.897,87.873
	c0-3.719-3.013-6.732-6.732-6.732s-6.732,3.014-6.732,6.732c0,3.72,3.013,6.732,6.732,6.732S399.897,91.593,399.897,87.873"/>
<path fill="none" stroke="#0000FF" stroke-width="0.0283" stroke-miterlimit="10" d="M422.574,87.873
	c0-3.719-3.013-6.732-6.732-6.732s-6.732,3.014-6.732,6.732c0,3.72,3.013,6.732,6.732,6.732S422.574,91.593,422.574,87.873"/>
<line fill="none" stroke="#0000FF" stroke-width="0.0283" stroke-miterlimit="10" x1="80.504" y1="17.857" x2="80.504" y2="89.857"/>
<line fill="none" stroke="#0000FF" stroke-width="0.0283" stroke-miterlimit="10" x1="152.504" y1="17.857" x2="152.504" y2="89.857"/>
<line fill="none" stroke="#0000FF" stroke-width="0.0283" stroke-miterlimit="10" x1="224.503" y1="17.857" x2="224.503" y2="89.857"/>
<line fill="none" stroke="#0000FF" stroke-width="0.0283" stroke-miterlimit="10" x1="296.504" y1="17.857" x2="296.504" y2="89.857"/>
<line fill="none" stroke="#0000FF" stroke-width="0.0283" stroke-miterlimit="10" x1="368.503" y1="17.857" x2="368.503" y2="89.857"/>
<path fill="none" stroke="#0000FF" stroke-width="0.0283" stroke-miterlimit="10" d="M565.114,19.842
	c0-2.349-1.903-4.252-4.252-4.252s-4.252,1.903-4.252,4.252c0,2.35,1.903,4.252,4.252,4.252S565.114,22.191,565.114,19.842"/>
<line fill="none" stroke="#0000FF" stroke-width="0.0283" stroke-miterlimit="10" x1="480.189" y1="15.59" x2="488.692" y2="15.59"/>
<line fill="none" stroke="#0000FF" stroke-width="0.0283" stroke-miterlimit="10" x1="480.189" y1="24.094" x2="488.692" y2="24.094"/>
<path fill="none" stroke="#0000FF" stroke-width="0.0283" stroke-miterlimit="10" d="M480.189,15.59
	c-2.35,0-4.252,1.903-4.252,4.252c0,2.35,1.903,4.252,4.252,4.252"/>
<path fill="none" stroke="#0000FF" stroke-width="0.0283" stroke-miterlimit="10" d="M488.692,24.094
	c2.35,0,4.252-1.902,4.252-4.252c0-2.349-1.902-4.252-4.252-4.252"/>
<path fill="none" stroke="#0000FF" stroke-width="0.0283" stroke-miterlimit="10" d="M543.16,17.008
	c3.835,0,6.454-1.258,8.851-4.252"/>
<path fill="none" stroke="#0000FF" stroke-width="0.0283" stroke-miterlimit="10" d="M569.713,12.756
	c-4.322-5.398-13.38-5.398-17.702,0"/>
<path fill="none" stroke="#0000FF" stroke-width="0.0283" stroke-miterlimit="10" d="M543.16,39.685
	c3.835,0,6.454-1.258,8.851-4.252"/>
<path fill="none" stroke="#0000FF" stroke-width="0.0283" stroke-miterlimit="10" d="M569.713,35.433
	c-4.322-5.398-13.38-5.398-17.702,0"/>
<path fill="none" stroke="#0000FF" stroke-width="0.0283" stroke-miterlimit="10" d="M578.565,17.008
	c-3.836,0-6.454-1.258-8.852-4.252"/>
<path fill="none" stroke="#0000FF" stroke-width="0.0283" stroke-miterlimit="10" d="M578.565,39.685
	c-3.836,0-6.454-1.258-8.852-4.252"/>
<line fill="none" stroke="#0000FF" stroke-width="0.0283" stroke-miterlimit="10" x1="506.395" y1="17.008" x2="543.16" y2="17.008"/>
<path fill="none" stroke="#0000FF" stroke-width="0.0283" stroke-miterlimit="10" d="M497.543,12.756
	c2.397,2.994,5.016,4.252,8.852,4.252"/>
<line fill="none" stroke="#0000FF" stroke-width="0.0283" stroke-miterlimit="10" x1="641.536" y1="15.59" x2="633.032" y2="15.59"/>
<line fill="none" stroke="#0000FF" stroke-width="0.0283" stroke-miterlimit="10" x1="641.536" y1="24.094" x2="633.032" y2="24.094"/>
<path fill="none" stroke="#0000FF" stroke-width="0.0283" stroke-miterlimit="10" d="M641.536,15.59
	c2.349,0,4.252,1.903,4.252,4.252c0,2.35-1.903,4.252-4.252,4.252"/>
<path fill="none" stroke="#0000FF" stroke-width="0.0283" stroke-miterlimit="10" d="M633.032,24.094
	c-2.349,0-4.252-1.902-4.252-4.252c0-2.349,1.903-4.252,4.252-4.252"/>
<line fill="none" stroke="#0000FF" stroke-width="0.0283" stroke-miterlimit="10" x1="615.33" y1="17.008" x2="578.565" y2="17.008"/>
<path fill="none" stroke="#0000FF" stroke-width="0.0283" stroke-miterlimit="10" d="M624.181,12.756
	c-2.397,2.994-5.016,4.252-8.852,4.252"/>
<line fill="none" stroke="#0000FF" stroke-width="0.0283" stroke-miterlimit="10" x1="614.479" y1="39.685" x2="578.565" y2="39.685"/>
<path fill="none" stroke="#0000FF" stroke-width="0.0283" stroke-miterlimit="10" d="M624.181,35.433
	c-2.397,2.994-5.016,4.252-8.852,4.252"/>
<path fill="none" stroke="#0000FF" stroke-width="0.0283" stroke-miterlimit="10" d="M497.543,12.756
	c-0.478-0.598-0.777-0.912-1.352-1.418"/>
<path fill="none" stroke="#0000FF" stroke-width="0.0283" stroke-miterlimit="10" d="M468.85,19.842
	c0-4.697,3.806-8.504,8.504-8.504"/>
<line fill="none" stroke="#0000FF" stroke-width="0.0283" stroke-miterlimit="10" x1="468.85" y1="19.842" x2="468.85" y2="25.512"/>
<path fill="none" stroke="#0000FF" stroke-width="0.0283" stroke-miterlimit="10" d="M468.85,25.512
	c0,4.697,3.806,8.504,8.504,8.504"/>
<path fill="none" stroke="#0000FF" stroke-width="0.0283" stroke-miterlimit="10" d="M497.543,35.433
	c2.397,2.994,5.016,4.252,8.852,4.252"/>
<path fill="none" stroke="#0000FF" stroke-width="0.0283" stroke-miterlimit="10" d="M497.543,35.433
	c-0.478-0.597-0.777-0.911-1.352-1.417"/>
<line fill="none" stroke="#0000FF" stroke-width="0.0283" stroke-miterlimit="10" x1="477.354" y1="34.016" x2="496.192" y2="34.016"/>
<path fill="none" stroke="#0000FF" stroke-width="0.0283" stroke-miterlimit="10" d="M624.181,12.756
	c0.478-0.598,0.778-0.912,1.352-1.418"/>
<path fill="none" stroke="#0000FF" stroke-width="0.0283" stroke-miterlimit="10" d="M652.875,19.842
	c0-4.697-3.807-8.504-8.504-8.504"/>
<line fill="none" stroke="#0000FF" stroke-width="0.0283" stroke-miterlimit="10" x1="652.875" y1="19.842" x2="652.875" y2="25.512"/>
<path fill="none" stroke="#0000FF" stroke-width="0.0283" stroke-miterlimit="10" d="M652.875,25.512
	c0,4.697-3.807,8.504-8.504,8.504"/>
<path fill="none" stroke="#0000FF" stroke-width="0.0283" stroke-miterlimit="10" d="M624.181,35.433
	c0.478-0.597,0.778-0.911,1.352-1.417"/>
<line fill="none" stroke="#0000FF" stroke-width="0.0283" stroke-miterlimit="10" x1="644.371" y1="34.016" x2="625.533" y2="34.016"/>
<line fill="none" stroke="#0000FF" stroke-width="0.0283" stroke-miterlimit="10" x1="543.16" y1="39.685" x2="507.246" y2="39.685"/>
<path fill="none" stroke="#0000FF" stroke-width="0.0283" stroke-miterlimit="10" d="M565.114,42.52c0-2.35-1.903-4.252-4.252-4.252
	s-4.252,1.902-4.252,4.252c0,2.348,1.903,4.252,4.252,4.252S565.114,44.867,565.114,42.52"/>
<line fill="none" stroke="#0000FF" stroke-width="0.0283" stroke-miterlimit="10" x1="480.189" y1="38.268" x2="488.692" y2="38.268"/>
<line fill="none" stroke="#0000FF" stroke-width="0.0283" stroke-miterlimit="10" x1="480.189" y1="46.771" x2="488.692" y2="46.771"/>
<path fill="none" stroke="#0000FF" stroke-width="0.0283" stroke-miterlimit="10" d="M480.189,38.268
	c-2.35,0-4.252,1.902-4.252,4.252c0,2.348,1.903,4.252,4.252,4.252"/>
<path fill="none" stroke="#0000FF" stroke-width="0.0283" stroke-miterlimit="10" d="M488.692,46.771
	c2.35,0,4.252-1.904,4.252-4.252c0-2.35-1.902-4.252-4.252-4.252"/>
<path fill="none" stroke="#0000FF" stroke-width="0.0283" stroke-miterlimit="10" d="M543.16,62.361
	c3.835,0,6.454-1.258,8.851-4.252"/>
<path fill="none" stroke="#0000FF" stroke-width="0.0283" stroke-miterlimit="10" d="M569.713,58.109
	c-4.322-5.398-13.38-5.398-17.702,0"/>
<path fill="none" stroke="#0000FF" stroke-width="0.0283" stroke-miterlimit="10" d="M578.565,62.361
	c-3.836,0-6.454-1.258-8.852-4.252"/>
<line fill="none" stroke="#0000FF" stroke-width="0.0283" stroke-miterlimit="10" x1="641.536" y1="38.268" x2="633.032" y2="38.268"/>
<line fill="none" stroke="#0000FF" stroke-width="0.0283" stroke-miterlimit="10" x1="641.536" y1="46.771" x2="633.032" y2="46.771"/>
<path fill="none" stroke="#0000FF" stroke-width="0.0283" stroke-miterlimit="10" d="M641.536,38.268
	c2.349,0,4.252,1.902,4.252,4.252c0,2.348-1.903,4.252-4.252,4.252"/>
<path fill="none" stroke="#0000FF" stroke-width="0.0283" stroke-miterlimit="10" d="M633.032,46.771
	c-2.349,0-4.252-1.904-4.252-4.252c0-2.35,1.903-4.252,4.252-4.252"/>
<path fill="none" stroke="#0000FF" stroke-width="0.0283" stroke-miterlimit="10" d="M624.181,58.109
	c-2.397,2.994-5.016,4.252-8.852,4.252"/>
<path fill="none" stroke="#0000FF" stroke-width="0.0283" stroke-miterlimit="10" d="M468.85,42.52c0-4.698,3.806-8.504,8.504-8.504
	"/>
<path fill="none" stroke="#0000FF" stroke-width="0.0283" stroke-miterlimit="10" d="M468.85,48.188
	c0,4.697,3.806,8.504,8.504,8.504"/>
<path fill="none" stroke="#0000FF" stroke-width="0.0283" stroke-miterlimit="10" d="M497.543,58.109
	c2.397,2.994,5.016,4.252,8.852,4.252"/>
<path fill="none" stroke="#0000FF" stroke-width="0.0283" stroke-miterlimit="10" d="M497.543,58.109
	c-0.478-0.597-0.777-0.91-1.352-1.417"/>
<line fill="none" stroke="#0000FF" stroke-width="0.0283" stroke-miterlimit="10" x1="477.354" y1="56.692" x2="496.192" y2="56.692"/>
<path fill="none" stroke="#0000FF" stroke-width="0.0283" stroke-miterlimit="10" d="M652.875,42.52
	c0-4.698-3.807-8.504-8.504-8.504"/>
<path fill="none" stroke="#0000FF" stroke-width="0.0283" stroke-miterlimit="10" d="M652.875,48.188
	c0,4.697-3.807,8.504-8.504,8.504"/>
<path fill="none" stroke="#0000FF" stroke-width="0.0283" stroke-miterlimit="10" d="M624.181,58.109
	c0.478-0.597,0.778-0.91,1.352-1.417"/>
<line fill="none" stroke="#0000FF" stroke-width="0.0283" stroke-miterlimit="10" x1="644.371" y1="56.692" x2="625.533" y2="56.692"/>
<line fill="none" stroke="#0000FF" stroke-width="0.0283" stroke-miterlimit="10" x1="614.479" y1="62.361" x2="578.565" y2="62.361"/>
<line fill="none" stroke="#0000FF" stroke-width="0.0283" stroke-miterlimit="10" x1="543.16" y1="62.361" x2="507.246" y2="62.361"/>
<path fill="none" stroke="#0000FF" stroke-width="0.0283" stroke-miterlimit="10" d="M565.114,65.196
	c0-2.349-1.903-4.252-4.252-4.252s-4.252,1.903-4.252,4.252s1.903,4.252,4.252,4.252S565.114,67.545,565.114,65.196"/>
<line fill="none" stroke="#0000FF" stroke-width="0.0283" stroke-miterlimit="10" x1="480.189" y1="60.944" x2="488.692" y2="60.944"/>
<line fill="none" stroke="#0000FF" stroke-width="0.0283" stroke-miterlimit="10" x1="480.189" y1="69.448" x2="488.692" y2="69.448"/>
<path fill="none" stroke="#0000FF" stroke-width="0.0283" stroke-miterlimit="10" d="M480.189,60.944
	c-2.35,0-4.252,1.903-4.252,4.252s1.903,4.252,4.252,4.252"/>
<path fill="none" stroke="#0000FF" stroke-width="0.0283" stroke-miterlimit="10" d="M488.692,69.448
	c2.35,0,4.252-1.903,4.252-4.252s-1.902-4.252-4.252-4.252"/>
<path fill="none" stroke="#0000FF" stroke-width="0.0283" stroke-miterlimit="10" d="M543.16,85.039
	c3.835,0,6.454-1.258,8.851-4.252"/>
<path fill="none" stroke="#0000FF" stroke-width="0.0283" stroke-miterlimit="10" d="M569.713,80.787
	c-4.322-5.398-13.38-5.398-17.702,0"/>
<path fill="none" stroke="#0000FF" stroke-width="0.0283" stroke-miterlimit="10" d="M578.565,85.039
	c-3.836,0-6.454-1.258-8.852-4.252"/>
<line fill="none" stroke="#0000FF" stroke-width="0.0283" stroke-miterlimit="10" x1="641.536" y1="60.944" x2="633.032" y2="60.944"/>
<line fill="none" stroke="#0000FF" stroke-width="0.0283" stroke-miterlimit="10" x1="641.536" y1="69.448" x2="633.032" y2="69.448"/>
<path fill="none" stroke="#0000FF" stroke-width="0.0283" stroke-miterlimit="10" d="M641.536,60.944
	c2.349,0,4.252,1.903,4.252,4.252s-1.903,4.252-4.252,4.252"/>
<path fill="none" stroke="#0000FF" stroke-width="0.0283" stroke-miterlimit="10" d="M633.032,69.448
	c-2.349,0-4.252-1.903-4.252-4.252s1.903-4.252,4.252-4.252"/>
<path fill="none" stroke="#0000FF" stroke-width="0.0283" stroke-miterlimit="10" d="M624.181,80.787
	c-2.397,2.994-5.016,4.252-8.852,4.252"/>
<path fill="none" stroke="#0000FF" stroke-width="0.0283" stroke-miterlimit="10" d="M468.85,65.196
	c0-4.698,3.806-8.504,8.504-8.504"/>
<line fill="none" stroke="#0000FF" stroke-width="0.0283" stroke-miterlimit="10" x1="468.85" y1="65.196" x2="468.85" y2="70.865"/>
<path fill="none" stroke="#0000FF" stroke-width="0.0283" stroke-miterlimit="10" d="M468.85,70.865
	c0,4.698,3.806,8.504,8.504,8.504"/>
<path fill="none" stroke="#0000FF" stroke-width="0.0283" stroke-miterlimit="10" d="M497.543,80.787
	c2.397,2.994,5.016,4.252,8.852,4.252"/>
<path fill="none" stroke="#0000FF" stroke-width="0.0283" stroke-miterlimit="10" d="M497.543,80.787
	c-0.478-0.598-0.777-0.912-1.352-1.418"/>
<line fill="none" stroke="#0000FF" stroke-width="0.0283" stroke-miterlimit="10" x1="477.354" y1="79.369" x2="496.192" y2="79.369"/>
<path fill="none" stroke="#0000FF" stroke-width="0.0283" stroke-miterlimit="10" d="M652.875,65.196
	c0-4.698-3.807-8.504-8.504-8.504"/>
<line fill="none" stroke="#0000FF" stroke-width="0.0283" stroke-miterlimit="10" x1="652.875" y1="65.196" x2="652.875" y2="70.865"/>
<path fill="none" stroke="#0000FF" stroke-width="0.0283" stroke-miterlimit="10" d="M652.875,70.865
	c0,4.698-3.807,8.504-8.504,8.504"/>
<path fill="none" stroke="#0000FF" stroke-width="0.0283" stroke-miterlimit="10" d="M624.181,80.787
	c0.478-0.598,0.778-0.912,1.352-1.418"/>
<line fill="none" stroke="#0000FF" stroke-width="0.0283" stroke-miterlimit="10" x1="644.371" y1="79.369" x2="625.533" y2="79.369"/>
<line fill="none" stroke="#0000FF" stroke-width="0.0283" stroke-miterlimit="10" x1="614.479" y1="85.039" x2="578.565" y2="85.039"/>
<line fill="none" stroke="#0000FF" stroke-width="0.0283" stroke-miterlimit="10" x1="543.16" y1="85.039" x2="507.246" y2="85.039"/>
<path fill="none" stroke="#0000FF" stroke-width="0.0283" stroke-miterlimit="10" d="M565.114,87.873
	c0-2.349-1.903-4.252-4.252-4.252s-4.252,1.903-4.252,4.252c0,2.35,1.903,4.252,4.252,4.252S565.114,90.223,565.114,87.873"/>
<line fill="none" stroke="#0000FF" stroke-width="0.0283" stroke-miterlimit="10" x1="480.189" y1="83.621" x2="488.692" y2="83.621"/>
<line fill="none" stroke="#0000FF" stroke-width="0.0283" stroke-miterlimit="10" x1="480.189" y1="92.125" x2="488.692" y2="92.125"/>
<path fill="none" stroke="#0000FF" stroke-width="0.0283" stroke-miterlimit="10" d="M480.189,83.621
	c-2.35,0-4.252,1.903-4.252,4.252c0,2.35,1.903,4.252,4.252,4.252"/>
<path fill="none" stroke="#0000FF" stroke-width="0.0283" stroke-miterlimit="10" d="M488.692,92.125
	c2.35,0,4.252-1.902,4.252-4.252c0-2.349-1.902-4.252-4.252-4.252"/>
<path fill="none" stroke="#0000FF" stroke-width="0.0283" stroke-miterlimit="10" d="M543.16,107.716
	c3.835,0,6.454-1.258,8.851-4.252"/>
<path fill="none" stroke="#0000FF" stroke-width="0.0283" stroke-miterlimit="10" d="M569.713,103.464
	c-4.322-5.397-13.38-5.397-17.702,0"/>
<path fill="none" stroke="#0000FF" stroke-width="0.0283" stroke-miterlimit="10" d="M578.565,107.716
	c-3.836,0-6.454-1.258-8.852-4.252"/>
<line fill="none" stroke="#0000FF" stroke-width="0.0283" stroke-miterlimit="10" x1="641.536" y1="83.621" x2="633.032" y2="83.621"/>
<line fill="none" stroke="#0000FF" stroke-width="0.0283" stroke-miterlimit="10" x1="641.536" y1="92.125" x2="633.032" y2="92.125"/>
<path fill="none" stroke="#0000FF" stroke-width="0.0283" stroke-miterlimit="10" d="M641.536,83.621
	c2.349,0,4.252,1.903,4.252,4.252c0,2.35-1.903,4.252-4.252,4.252"/>
<path fill="none" stroke="#0000FF" stroke-width="0.0283" stroke-miterlimit="10" d="M633.032,92.125
	c-2.349,0-4.252-1.902-4.252-4.252c0-2.349,1.903-4.252,4.252-4.252"/>
<path fill="none" stroke="#0000FF" stroke-width="0.0283" stroke-miterlimit="10" d="M624.181,103.464
	c-2.397,2.994-5.016,4.252-8.852,4.252"/>
<path fill="none" stroke="#0000FF" stroke-width="0.0283" stroke-miterlimit="10" d="M468.85,87.873
	c0-4.697,3.806-8.504,8.504-8.504"/>
<path fill="none" stroke="#0000FF" stroke-width="0.0283" stroke-miterlimit="10" d="M468.85,93.543
	c0,4.698,3.806,8.504,8.504,8.504"/>
<path fill="none" stroke="#0000FF" stroke-width="0.0283" stroke-miterlimit="10" d="M497.543,103.464
	c2.397,2.994,5.016,4.252,8.852,4.252"/>
<path fill="none" stroke="#0000FF" stroke-width="0.0283" stroke-miterlimit="10" d="M497.543,103.464
	c-0.478-0.598-0.777-0.911-1.352-1.417"/>
<line fill="none" stroke="#0000FF" stroke-width="0.0283" stroke-miterlimit="10" x1="477.354" y1="102.047" x2="496.192" y2="102.047"/>
<path fill="none" stroke="#0000FF" stroke-width="0.0283" stroke-miterlimit="10" d="M652.875,87.873
	c0-4.697-3.807-8.504-8.504-8.504"/>
<path fill="none" stroke="#0000FF" stroke-width="0.0283" stroke-miterlimit="10" d="M652.875,93.543
	c0,4.698-3.807,8.504-8.504,8.504"/>
<path fill="none" stroke="#0000FF" stroke-width="0.0283" stroke-miterlimit="10" d="M624.181,103.464
	c0.478-0.598,0.778-0.911,1.352-1.417"/>
<line fill="none" stroke="#0000FF" stroke-width="0.0283" stroke-miterlimit="10" x1="644.371" y1="102.047" x2="625.533" y2="102.047"/>
<line fill="none" stroke="#0000FF" stroke-width="0.0283" stroke-miterlimit="10" x1="614.479" y1="107.716" x2="578.565" y2="107.716"/>
<line fill="none" stroke="#0000FF" stroke-width="0.0283" stroke-miterlimit="10" x1="543.16" y1="107.716" x2="507.246" y2="107.716"/>
<path fill="none" stroke="#0000FF" stroke-width="0.0283" stroke-miterlimit="10" d="M565.114,110.551
	c0-2.349-1.903-4.252-4.252-4.252s-4.252,1.903-4.252,4.252s1.903,4.252,4.252,4.252S565.114,112.899,565.114,110.551"/>
<line fill="none" stroke="#0000FF" stroke-width="0.0283" stroke-miterlimit="10" x1="480.189" y1="106.299" x2="488.692" y2="106.299"/>
<line fill="none" stroke="#0000FF" stroke-width="0.0283" stroke-miterlimit="10" x1="480.189" y1="114.803" x2="488.692" y2="114.803"/>
<path fill="none" stroke="#0000FF" stroke-width="0.0283" stroke-miterlimit="10" d="M480.189,106.299
	c-2.35,0-4.252,1.903-4.252,4.252s1.903,4.252,4.252,4.252"/>
<path fill="none" stroke="#0000FF" stroke-width="0.0283" stroke-miterlimit="10" d="M488.692,114.803
	c2.35,0,4.252-1.903,4.252-4.252s-1.902-4.252-4.252-4.252"/>
<path fill="none" stroke="#0000FF" stroke-width="0.0283" stroke-miterlimit="10" d="M543.16,130.393
	c3.835,0,6.454-1.258,8.851-4.251"/>
<path fill="none" stroke="#0000FF" stroke-width="0.0283" stroke-miterlimit="10" d="M569.713,126.142
	c-4.322-5.398-13.38-5.398-17.702,0"/>
<path fill="none" stroke="#0000FF" stroke-width="0.0283" stroke-miterlimit="10" d="M578.565,130.393
	c-3.836,0-6.454-1.258-8.852-4.251"/>
<line fill="none" stroke="#0000FF" stroke-width="0.0283" stroke-miterlimit="10" x1="641.536" y1="106.299" x2="633.032" y2="106.299"/>
<line fill="none" stroke="#0000FF" stroke-width="0.0283" stroke-miterlimit="10" x1="641.536" y1="114.803" x2="633.032" y2="114.803"/>
<path fill="none" stroke="#0000FF" stroke-width="0.0283" stroke-miterlimit="10" d="M641.536,106.299
	c2.349,0,4.252,1.903,4.252,4.252s-1.903,4.252-4.252,4.252"/>
<path fill="none" stroke="#0000FF" stroke-width="0.0283" stroke-miterlimit="10" d="M633.032,114.803
	c-2.349,0-4.252-1.903-4.252-4.252s1.903-4.252,4.252-4.252"/>
<path fill="none" stroke="#0000FF" stroke-width="0.0283" stroke-miterlimit="10" d="M624.181,126.142
	c-2.397,2.993-5.016,4.251-8.852,4.251"/>
<path fill="none" stroke="#0000FF" stroke-width="0.0283" stroke-miterlimit="10" d="M468.85,110.551
	c0-4.697,3.806-8.504,8.504-8.504"/>
<line fill="none" stroke="#0000FF" stroke-width="0.0283" stroke-miterlimit="10" x1="468.85" y1="110.551" x2="468.85" y2="116.22"/>
<path fill="none" stroke="#0000FF" stroke-width="0.0283" stroke-miterlimit="10" d="M468.85,116.22
	c0,4.698,3.806,8.504,8.504,8.504"/>
<path fill="none" stroke="#0000FF" stroke-width="0.0283" stroke-miterlimit="10" d="M497.543,126.142
	c2.397,2.993,5.016,4.251,8.852,4.251"/>
<path fill="none" stroke="#0000FF" stroke-width="0.0283" stroke-miterlimit="10" d="M497.543,126.142
	c-0.478-0.598-0.777-0.911-1.352-1.418"/>
<line fill="none" stroke="#0000FF" stroke-width="0.0283" stroke-miterlimit="10" x1="477.354" y1="124.724" x2="496.192" y2="124.724"/>
<path fill="none" stroke="#0000FF" stroke-width="0.0283" stroke-miterlimit="10" d="M652.875,110.551
	c0-4.697-3.807-8.504-8.504-8.504"/>
<line fill="none" stroke="#0000FF" stroke-width="0.0283" stroke-miterlimit="10" x1="652.875" y1="110.551" x2="652.875" y2="116.22"/>
<path fill="none" stroke="#0000FF" stroke-width="0.0283" stroke-miterlimit="10" d="M652.875,116.22
	c0,4.698-3.807,8.504-8.504,8.504"/>
<path fill="none" stroke="#0000FF" stroke-width="0.0283" stroke-miterlimit="10" d="M624.181,126.142
	c0.478-0.598,0.778-0.911,1.352-1.418"/>
<line fill="none" stroke="#0000FF" stroke-width="0.0283" stroke-miterlimit="10" x1="644.371" y1="124.724" x2="625.533" y2="124.724"/>
<line fill="none" stroke="#0000FF" stroke-width="0.0283" stroke-miterlimit="10" x1="614.479" y1="130.393" x2="578.565" y2="130.393"/>
<line fill="none" stroke="#0000FF" stroke-width="0.0283" stroke-miterlimit="10" x1="543.16" y1="130.393" x2="507.246" y2="130.393"/>
<path fill="none" stroke="#0000FF" stroke-width="0.0283" stroke-miterlimit="10" d="M565.114,133.229
	c0-2.35-1.903-4.252-4.252-4.252s-4.252,1.902-4.252,4.252c0,2.349,1.903,4.252,4.252,4.252S565.114,135.577,565.114,133.229"/>
<line fill="none" stroke="#0000FF" stroke-width="0.0283" stroke-miterlimit="10" x1="480.189" y1="128.977" x2="488.692" y2="128.977"/>
<line fill="none" stroke="#0000FF" stroke-width="0.0283" stroke-miterlimit="10" x1="480.189" y1="137.48" x2="488.692" y2="137.48"/>
<path fill="none" stroke="#0000FF" stroke-width="0.0283" stroke-miterlimit="10" d="M480.189,128.977
	c-2.35,0-4.252,1.902-4.252,4.252c0,2.349,1.903,4.252,4.252,4.252"/>
<path fill="none" stroke="#0000FF" stroke-width="0.0283" stroke-miterlimit="10" d="M488.692,137.48
	c2.35,0,4.252-1.903,4.252-4.252c0-2.35-1.902-4.252-4.252-4.252"/>
<path fill="none" stroke="#0000FF" stroke-width="0.0283" stroke-miterlimit="10" d="M543.16,153.07
	c3.835,0,6.454-1.258,8.851-4.252"/>
<path fill="none" stroke="#0000FF" stroke-width="0.0283" stroke-miterlimit="10" d="M569.713,148.818
	c-4.322-5.398-13.38-5.398-17.702,0"/>
<path fill="none" stroke="#0000FF" stroke-width="0.0283" stroke-miterlimit="10" d="M578.565,153.07
	c-3.836,0-6.454-1.258-8.852-4.252"/>
<line fill="none" stroke="#0000FF" stroke-width="0.0283" stroke-miterlimit="10" x1="641.536" y1="128.977" x2="633.032" y2="128.977"/>
<line fill="none" stroke="#0000FF" stroke-width="0.0283" stroke-miterlimit="10" x1="641.536" y1="137.48" x2="633.032" y2="137.48"/>
<path fill="none" stroke="#0000FF" stroke-width="0.0283" stroke-miterlimit="10" d="M641.536,128.977
	c2.349,0,4.252,1.902,4.252,4.252c0,2.349-1.903,4.252-4.252,4.252"/>
<path fill="none" stroke="#0000FF" stroke-width="0.0283" stroke-miterlimit="10" d="M633.032,137.48
	c-2.349,0-4.252-1.903-4.252-4.252c0-2.35,1.903-4.252,4.252-4.252"/>
<path fill="none" stroke="#0000FF" stroke-width="0.0283" stroke-miterlimit="10" d="M624.181,148.818
	c-2.397,2.994-5.016,4.252-8.852,4.252"/>
<path fill="none" stroke="#0000FF" stroke-width="0.0283" stroke-miterlimit="10" d="M468.85,133.229
	c0-4.698,3.806-8.505,8.504-8.505"/>
<path fill="none" stroke="#0000FF" stroke-width="0.0283" stroke-miterlimit="10" d="M468.85,138.896
	c0,4.698,3.806,8.505,8.504,8.505"/>
<path fill="none" stroke="#0000FF" stroke-width="0.0283" stroke-miterlimit="10" d="M497.543,148.818
	c2.397,2.994,5.016,4.252,8.852,4.252"/>
<path fill="none" stroke="#0000FF" stroke-width="0.0283" stroke-miterlimit="10" d="M497.543,148.818
	c-0.478-0.597-0.777-0.911-1.352-1.417"/>
<line fill="none" stroke="#0000FF" stroke-width="0.0283" stroke-miterlimit="10" x1="477.354" y1="147.401" x2="496.192" y2="147.401"/>
<path fill="none" stroke="#0000FF" stroke-width="0.0283" stroke-miterlimit="10" d="M652.875,133.229
	c0-4.698-3.807-8.505-8.504-8.505"/>
<path fill="none" stroke="#0000FF" stroke-width="0.0283" stroke-miterlimit="10" d="M652.875,138.896
	c0,4.698-3.807,8.505-8.504,8.505"/>
<path fill="none" stroke="#0000FF" stroke-width="0.0283" stroke-miterlimit="10" d="M624.181,148.818
	c0.478-0.597,0.778-0.911,1.352-1.417"/>
<line fill="none" stroke="#0000FF" stroke-width="0.0283" stroke-miterlimit="10" x1="644.371" y1="147.401" x2="625.533" y2="147.401"/>
<line fill="none" stroke="#0000FF" stroke-width="0.0283" stroke-miterlimit="10" x1="17.008" y1="8.504" x2="72" y2="8.504"/>
<line fill="none" stroke="#0000FF" stroke-width="0.0283" stroke-miterlimit="10" x1="161.008" y1="8.504" x2="216" y2="8.504"/>
<line fill="none" stroke="#0000FF" stroke-width="0.0283" stroke-miterlimit="10" x1="305.008" y1="8.504" x2="360" y2="8.504"/>
<line fill="none" stroke="#0000FF" stroke-width="0.0283" stroke-miterlimit="10" x1="8.504" y1="17.008" x2="8.504" y2="90.708"/>
<line fill="none" stroke="#0000FF" stroke-width="0.0283" stroke-miterlimit="10" x1="440.504" y1="17.008" x2="440.504" y2="90.708"/>
<line fill="none" stroke="#0000FF" stroke-width="0.0283" stroke-miterlimit="10" x1="377.007" y1="99.212" x2="432" y2="99.212"/>
<line fill="none" stroke="#0000FF" stroke-width="0.0283" stroke-miterlimit="10" x1="233.007" y1="99.212" x2="288" y2="99.212"/>
<line fill="none" stroke="#0000FF" stroke-width="0.0283" stroke-miterlimit="10" x1="89.008" y1="99.212" x2="144" y2="99.212"/>
<line fill="none" stroke="#0000FF" stroke-width="0.0283" stroke-miterlimit="10" x1="644.371" y1="11.338" x2="625.533" y2="11.338"/>
<line fill="none" stroke="#0000FF" stroke-width="0.0283" stroke-miterlimit="10" x1="496.192" y1="11.338" x2="477.354" y2="11.338"/>
<line fill="none" stroke="#0000FF" stroke-width="0.0283" stroke-miterlimit="10" x1="468.85" y1="42.52" x2="468.85" y2="48.188"/>
<line fill="none" stroke="#0000FF" stroke-width="0.0283" stroke-miterlimit="10" x1="468.85" y1="87.873" x2="468.85" y2="93.543"/>
<line fill="none" stroke="#0000FF" stroke-width="0.0283" stroke-miterlimit="10" x1="468.85" y1="133.229" x2="468.85" y2="138.896"/>
<line fill="none" stroke="#0000FF" stroke-width="0.0283" stroke-miterlimit="10" x1="543.16" y1="153.07" x2="506.395" y2="153.07"/>
<line fill="none" stroke="#0000FF" stroke-width="0.0283" stroke-miterlimit="10" x1="615.33" y1="153.07" x2="578.565" y2="153.07"/>
<line fill="none" stroke="#0000FF" stroke-width="0.0283" stroke-miterlimit="10" x1="652.875" y1="42.52" x2="652.875" y2="48.188"/>
<line fill="none" stroke="#0000FF" stroke-width="0.0283" stroke-miterlimit="10" x1="652.875" y1="87.873" x2="652.875" y2="93.543"/>
<line fill="none" stroke="#0000FF" stroke-width="0.0283" stroke-miterlimit="10" x1="652.875" y1="133.229" x2="652.875" y2="138.896"/>
<path fill="none" stroke="#0000FF" stroke-width="0.0283" stroke-miterlimit="10" d="M777.486,126.027
	c0-2.349-1.903-4.252-4.252-4.252c-2.349,0-4.251,1.903-4.251,4.252c0,2.35,1.903,4.253,4.251,4.253
	C775.583,130.28,777.486,128.377,777.486,126.027"/>
<line fill="none" stroke="#0000FF" stroke-width="0.0283" stroke-miterlimit="10" x1="777.486" y1="45.354" x2="777.486" y2="53.857"/>
<line fill="none" stroke="#0000FF" stroke-width="0.0283" stroke-miterlimit="10" x1="768.983" y1="45.354" x2="768.983" y2="53.857"/>
<path fill="none" stroke="#0000FF" stroke-width="0.0283" stroke-miterlimit="10" d="M777.486,45.354
	c0-2.349-1.903-4.252-4.252-4.252c-2.349,0-4.251,1.903-4.251,4.252"/>
<path fill="none" stroke="#0000FF" stroke-width="0.0283" stroke-miterlimit="10" d="M768.983,53.857
	c0,2.35,1.903,4.252,4.251,4.252c2.349,0,4.252-1.902,4.252-4.252"/>
<path fill="none" stroke="#0000FF" stroke-width="0.0283" stroke-miterlimit="10" d="M764.73,111.854
	c0,6.265-5.075,11.339-11.338,11.339"/>
<path fill="none" stroke="#0000FF" stroke-width="0.0283" stroke-miterlimit="10" d="M777.486,126.027
	c0-2.349-1.903-4.252-4.252-4.252c-2.349,0-4.251,1.903-4.251,4.252c0,2.35,1.903,4.253,4.251,4.253
	C775.583,130.28,777.486,128.377,777.486,126.027"/>
<path fill="none" stroke="#0000FF" stroke-width="0.0283" stroke-miterlimit="10" d="M798.747,123.193
	c-6.264,0-11.338-5.074-11.338-11.339"/>
<line fill="none" stroke="#0000FF" stroke-width="0.0283" stroke-miterlimit="10" x1="692.561" y1="121.775" x2="701.064" y2="121.775"/>
<line fill="none" stroke="#0000FF" stroke-width="0.0283" stroke-miterlimit="10" x1="692.561" y1="130.28" x2="701.064" y2="130.28"/>
<path fill="none" stroke="#0000FF" stroke-width="0.0283" stroke-miterlimit="10" d="M692.561,121.775
	c-2.349,0-4.252,1.903-4.252,4.252c0,2.35,1.903,4.253,4.252,4.253"/>
<path fill="none" stroke="#0000FF" stroke-width="0.0283" stroke-miterlimit="10" d="M701.064,130.28
	c2.349,0,4.252-1.903,4.252-4.253c0-2.349-1.903-4.252-4.252-4.252"/>
<path fill="none" stroke="#0000FF" stroke-width="0.0283" stroke-miterlimit="10" d="M755.532,145.871
	c3.835,0,6.454-1.259,8.851-4.253"/>
<path fill="none" stroke="#0000FF" stroke-width="0.0283" stroke-miterlimit="10" d="M782.086,141.618
	c-4.322-5.398-13.381-5.398-17.703,0"/>
<path fill="none" stroke="#0000FF" stroke-width="0.0283" stroke-miterlimit="10" d="M790.937,145.871
	c-3.836,0-6.454-1.259-8.851-4.253"/>
<path fill="none" stroke="#0000FF" stroke-width="0.0283" stroke-miterlimit="10" d="M709.916,118.941
	c2.397,2.994,5.016,4.252,8.851,4.252"/>
<line fill="none" stroke="#0000FF" stroke-width="0.0283" stroke-miterlimit="10" x1="718.767" y1="145.871" x2="755.532" y2="145.871"/>
<line fill="none" stroke="#0000FF" stroke-width="0.0283" stroke-miterlimit="10" x1="853.909" y1="121.775" x2="845.405" y2="121.775"/>
<line fill="none" stroke="#0000FF" stroke-width="0.0283" stroke-miterlimit="10" x1="853.909" y1="130.28" x2="845.405" y2="130.28"/>
<path fill="none" stroke="#0000FF" stroke-width="0.0283" stroke-miterlimit="10" d="M853.909,121.775
	c2.349,0,4.251,1.903,4.251,4.252c0,2.35-1.902,4.253-4.251,4.253"/>
<path fill="none" stroke="#0000FF" stroke-width="0.0283" stroke-miterlimit="10" d="M845.405,130.28
	c-2.349,0-4.252-1.903-4.252-4.253c0-2.349,1.903-4.252,4.252-4.252"/>
<path fill="none" stroke="#0000FF" stroke-width="0.0283" stroke-miterlimit="10" d="M836.554,118.941
	c-2.398,2.994-5.017,4.252-8.852,4.252"/>
<line fill="none" stroke="#0000FF" stroke-width="0.0283" stroke-miterlimit="10" x1="827.703" y1="145.871" x2="790.937" y2="145.871"/>
<path fill="none" stroke="#0000FF" stroke-width="0.0283" stroke-miterlimit="10" d="M836.554,141.618
	c-2.398,2.994-5.017,4.253-8.852,4.253"/>
<path fill="none" stroke="#0000FF" stroke-width="0.0283" stroke-miterlimit="10" d="M709.916,118.941
	c-0.478-0.598-0.777-0.912-1.351-1.418"/>
<path fill="none" stroke="#0000FF" stroke-width="0.0283" stroke-miterlimit="10" d="M681.222,126.027
	c0-4.697,3.806-8.504,8.504-8.504"/>
<line fill="none" stroke="#0000FF" stroke-width="0.0283" stroke-miterlimit="10" x1="681.222" y1="126.027" x2="681.222" y2="131.697"/>
<path fill="none" stroke="#0000FF" stroke-width="0.0283" stroke-miterlimit="10" d="M681.222,131.697
	c0,4.697,3.806,8.503,8.504,8.503"/>
<line fill="none" stroke="#0000FF" stroke-width="0.0283" stroke-miterlimit="10" x1="689.726" y1="117.523" x2="708.564" y2="117.523"/>
<path fill="none" stroke="#0000FF" stroke-width="0.0283" stroke-miterlimit="10" d="M709.916,141.618
	c2.397,2.994,5.016,4.253,8.851,4.253"/>
<path fill="none" stroke="#0000FF" stroke-width="0.0283" stroke-miterlimit="10" d="M709.916,141.618
	c-0.478-0.597-0.777-0.911-1.351-1.418"/>
<line fill="none" stroke="#0000FF" stroke-width="0.0283" stroke-miterlimit="10" x1="689.726" y1="140.2" x2="708.564" y2="140.2"/>
<path fill="none" stroke="#0000FF" stroke-width="0.0283" stroke-miterlimit="10" d="M865.247,126.027
	c0-4.697-3.806-8.504-8.503-8.504"/>
<line fill="none" stroke="#0000FF" stroke-width="0.0283" stroke-miterlimit="10" x1="865.247" y1="126.027" x2="865.247" y2="131.697"/>
<path fill="none" stroke="#0000FF" stroke-width="0.0283" stroke-miterlimit="10" d="M865.247,131.697
	c0,4.697-3.806,8.503-8.503,8.503"/>
<line fill="none" stroke="#0000FF" stroke-width="0.0283" stroke-miterlimit="10" x1="856.744" y1="117.523" x2="837.905" y2="117.523"/>
<path fill="none" stroke="#0000FF" stroke-width="0.0283" stroke-miterlimit="10" d="M836.554,141.618
	c0.478-0.597,0.776-0.911,1.351-1.418"/>
<line fill="none" stroke="#0000FF" stroke-width="0.0283" stroke-miterlimit="10" x1="856.744" y1="140.2" x2="837.905" y2="140.2"/>
<line fill="none" stroke="#0000FF" stroke-width="0.0283" stroke-miterlimit="10" x1="768.983" y1="45.354" x2="768.983" y2="53.857"/>
<line fill="none" stroke="#0000FF" stroke-width="0.0283" stroke-miterlimit="10" x1="777.486" y1="45.354" x2="777.486" y2="53.857"/>
<path fill="none" stroke="#0000FF" stroke-width="0.0283" stroke-miterlimit="10" d="M768.983,45.354
	c0-2.349,1.903-4.252,4.251-4.252c2.349,0,4.252,1.903,4.252,4.252"/>
<path fill="none" stroke="#0000FF" stroke-width="0.0283" stroke-miterlimit="10" d="M777.486,53.857
	c0,2.35-1.903,4.252-4.252,4.252c-2.349,0-4.251-1.902-4.251-4.252"/>
<path fill="none" stroke="#0000FF" stroke-width="0.0283" stroke-miterlimit="10" d="M773.234,34.016
	c-4.698,0-8.504,3.806-8.504,8.504"/>
<line fill="none" stroke="#0000FF" stroke-width="0.0283" stroke-miterlimit="10" x1="773.234" y1="34.016" x2="778.904" y2="34.016"/>
<path fill="none" stroke="#0000FF" stroke-width="0.0283" stroke-miterlimit="10" d="M778.904,34.016
	c4.698,0,8.504,3.806,8.504,8.504"/>
<line fill="none" stroke="#0000FF" stroke-width="0.0283" stroke-miterlimit="10" x1="764.73" y1="42.52" x2="764.73" y2="111.854"/>
<line fill="none" stroke="#0000FF" stroke-width="0.0283" stroke-miterlimit="10" x1="787.408" y1="42.52" x2="787.408" y2="111.854"/>
<line fill="none" stroke="#0000FF" stroke-width="0.0283" stroke-miterlimit="10" x1="718.767" y1="123.193" x2="753.392" y2="123.193"/>
<line fill="none" stroke="#0000FF" stroke-width="0.0283" stroke-miterlimit="10" x1="827.703" y1="123.193" x2="798.747" y2="123.193"/>
<path fill="none" stroke="#0000FF" stroke-width="0.0283" stroke-miterlimit="10" d="M836.554,118.941
	c0.478-0.598,0.776-0.912,1.351-1.418"/>
<path fill="none" stroke="#0000FF" stroke-width="0.0283" stroke-miterlimit="10" d="M800.731,28.346
	c0,2.35,1.903,4.252,4.252,4.252c2.349,0,4.251-1.902,4.251-4.252c0-2.349-1.903-4.252-4.251-4.252
	C802.634,24.094,800.731,25.997,800.731,28.346"/>
<line fill="none" stroke="#0000FF" stroke-width="0.0283" stroke-miterlimit="10" x1="800.731" y1="109.02" x2="800.731" y2="100.516"/>
<line fill="none" stroke="#0000FF" stroke-width="0.0283" stroke-miterlimit="10" x1="809.234" y1="109.02" x2="809.234" y2="100.516"/>
<path fill="none" stroke="#0000FF" stroke-width="0.0283" stroke-miterlimit="10" d="M800.731,109.02
	c0,2.349,1.903,4.253,4.252,4.253c2.349,0,4.251-1.904,4.251-4.253"/>
<path fill="none" stroke="#0000FF" stroke-width="0.0283" stroke-miterlimit="10" d="M809.234,100.516
	c0-2.349-1.903-4.252-4.251-4.252c-2.349,0-4.252,1.903-4.252,4.252"/>
<path fill="none" stroke="#0000FF" stroke-width="0.0283" stroke-miterlimit="10" d="M813.486,42.52
	c0-6.264,5.076-11.339,11.338-11.339"/>
<path fill="none" stroke="#0000FF" stroke-width="0.0283" stroke-miterlimit="10" d="M800.731,28.346
	c0,2.35,1.903,4.252,4.252,4.252c2.349,0,4.251-1.902,4.251-4.252c0-2.349-1.903-4.252-4.251-4.252
	C802.634,24.094,800.731,25.997,800.731,28.346"/>
<path fill="none" stroke="#0000FF" stroke-width="0.0283" stroke-miterlimit="10" d="M779.471,31.181
	c6.264,0,11.338,5.075,11.338,11.339"/>
<line fill="none" stroke="#0000FF" stroke-width="0.0283" stroke-miterlimit="10" x1="885.656" y1="32.598" x2="877.152" y2="32.598"/>
<line fill="none" stroke="#0000FF" stroke-width="0.0283" stroke-miterlimit="10" x1="885.656" y1="24.094" x2="877.152" y2="24.094"/>
<path fill="none" stroke="#0000FF" stroke-width="0.0283" stroke-miterlimit="10" d="M885.656,32.598
	c2.349,0,4.252-1.902,4.252-4.252c0-2.349-1.903-4.252-4.252-4.252"/>
<path fill="none" stroke="#0000FF" stroke-width="0.0283" stroke-miterlimit="10" d="M877.152,24.094
	c-2.349,0-4.251,1.903-4.251,4.252c0,2.35,1.903,4.252,4.251,4.252"/>
<path fill="none" stroke="#0000FF" stroke-width="0.0283" stroke-miterlimit="10" d="M822.685,8.504
	c-3.836,0-6.454,1.257-8.851,4.252"/>
<path fill="none" stroke="#0000FF" stroke-width="0.0283" stroke-miterlimit="10" d="M796.131,12.756
	c4.322,5.397,13.381,5.397,17.703,0"/>
<path fill="none" stroke="#0000FF" stroke-width="0.0283" stroke-miterlimit="10" d="M787.28,8.504c3.835,0,6.454,1.257,8.851,4.252
	"/>
<path fill="none" stroke="#0000FF" stroke-width="0.0283" stroke-miterlimit="10" d="M868.301,35.433
	c-2.397-2.994-5.016-4.252-8.852-4.252"/>
<line fill="none" stroke="#0000FF" stroke-width="0.0283" stroke-miterlimit="10" x1="859.45" y1="8.504" x2="822.685" y2="8.504"/>
<line fill="none" stroke="#0000FF" stroke-width="0.0283" stroke-miterlimit="10" x1="724.308" y1="32.598" x2="732.812" y2="32.598"/>
<line fill="none" stroke="#0000FF" stroke-width="0.0283" stroke-miterlimit="10" x1="724.308" y1="24.094" x2="732.812" y2="24.094"/>
<path fill="none" stroke="#0000FF" stroke-width="0.0283" stroke-miterlimit="10" d="M724.308,32.598
	c-2.349,0-4.251-1.902-4.251-4.252c0-2.349,1.903-4.252,4.251-4.252"/>
<path fill="none" stroke="#0000FF" stroke-width="0.0283" stroke-miterlimit="10" d="M732.812,24.094
	c2.349,0,4.252,1.903,4.252,4.252c0,2.35-1.903,4.252-4.252,4.252"/>
<path fill="none" stroke="#0000FF" stroke-width="0.0283" stroke-miterlimit="10" d="M741.664,35.433
	c2.397-2.994,5.016-4.252,8.851-4.252"/>
<line fill="none" stroke="#0000FF" stroke-width="0.0283" stroke-miterlimit="10" x1="750.515" y1="8.504" x2="787.28" y2="8.504"/>
<path fill="none" stroke="#0000FF" stroke-width="0.0283" stroke-miterlimit="10" d="M741.664,12.756
	c2.397-2.995,5.016-4.252,8.851-4.252"/>
<path fill="none" stroke="#0000FF" stroke-width="0.0283" stroke-miterlimit="10" d="M868.301,35.433
	c0.479,0.597,0.778,0.911,1.351,1.417"/>
<path fill="none" stroke="#0000FF" stroke-width="0.0283" stroke-miterlimit="10" d="M896.995,28.346
	c0,4.697-3.807,8.504-8.504,8.504"/>
<line fill="none" stroke="#0000FF" stroke-width="0.0283" stroke-miterlimit="10" x1="896.995" y1="28.346" x2="896.995" y2="22.677"/>
<path fill="none" stroke="#0000FF" stroke-width="0.0283" stroke-miterlimit="10" d="M896.995,22.677
	c0-4.698-3.807-8.505-8.504-8.505"/>
<line fill="none" stroke="#0000FF" stroke-width="0.0283" stroke-miterlimit="10" x1="888.491" y1="36.85" x2="869.652" y2="36.85"/>
<path fill="none" stroke="#0000FF" stroke-width="0.0283" stroke-miterlimit="10" d="M868.301,12.756
	c-2.397-2.995-5.016-4.252-8.852-4.252"/>
<path fill="none" stroke="#0000FF" stroke-width="0.0283" stroke-miterlimit="10" d="M868.301,12.756
	c0.479,0.597,0.778,0.911,1.351,1.416"/>
<line fill="none" stroke="#0000FF" stroke-width="0.0283" stroke-miterlimit="10" x1="888.491" y1="14.172" x2="869.652" y2="14.172"/>
<path fill="none" stroke="#0000FF" stroke-width="0.0283" stroke-miterlimit="10" d="M712.97,28.346
	c0,4.697,3.806,8.504,8.504,8.504"/>
<line fill="none" stroke="#0000FF" stroke-width="0.0283" stroke-miterlimit="10" x1="712.97" y1="28.346" x2="712.97" y2="22.677"/>
<path fill="none" stroke="#0000FF" stroke-width="0.0283" stroke-miterlimit="10" d="M712.97,22.677
	c0-4.698,3.806-8.505,8.504-8.505"/>
<line fill="none" stroke="#0000FF" stroke-width="0.0283" stroke-miterlimit="10" x1="721.474" y1="36.85" x2="740.312" y2="36.85"/>
<path fill="none" stroke="#0000FF" stroke-width="0.0283" stroke-miterlimit="10" d="M741.664,12.756
	c-0.478,0.597-0.777,0.911-1.352,1.416"/>
<line fill="none" stroke="#0000FF" stroke-width="0.0283" stroke-miterlimit="10" x1="721.474" y1="14.172" x2="740.312" y2="14.172"/>
<line fill="none" stroke="#0000FF" stroke-width="0.0283" stroke-miterlimit="10" x1="809.234" y1="109.02" x2="809.234" y2="100.516"/>
<line fill="none" stroke="#0000FF" stroke-width="0.0283" stroke-miterlimit="10" x1="800.731" y1="109.02" x2="800.731" y2="100.516"/>
<path fill="none" stroke="#0000FF" stroke-width="0.0283" stroke-miterlimit="10" d="M809.234,109.02
	c0,2.349-1.903,4.253-4.251,4.253c-2.349,0-4.252-1.904-4.252-4.253"/>
<path fill="none" stroke="#0000FF" stroke-width="0.0283" stroke-miterlimit="10" d="M800.731,100.516
	c0-2.349,1.903-4.252,4.252-4.252c2.349,0,4.251,1.903,4.251,4.252"/>
<path fill="none" stroke="#0000FF" stroke-width="0.0283" stroke-miterlimit="10" d="M804.983,120.358
	c4.697,0,8.503-3.807,8.503-8.504"/>
<line fill="none" stroke="#0000FF" stroke-width="0.0283" stroke-miterlimit="10" x1="804.983" y1="120.358" x2="799.313" y2="120.358"/>
<path fill="none" stroke="#0000FF" stroke-width="0.0283" stroke-miterlimit="10" d="M799.313,120.358
	c-4.698,0-8.504-3.807-8.504-8.504"/>
<line fill="none" stroke="#0000FF" stroke-width="0.0283" stroke-miterlimit="10" x1="813.486" y1="111.854" x2="813.486" y2="42.52"/>
<line fill="none" stroke="#0000FF" stroke-width="0.0283" stroke-miterlimit="10" x1="790.809" y1="111.854" x2="790.809" y2="42.52"/>
<line fill="none" stroke="#0000FF" stroke-width="0.0283" stroke-miterlimit="10" x1="859.45" y1="31.181" x2="824.825" y2="31.181"/>
<line fill="none" stroke="#0000FF" stroke-width="0.0283" stroke-miterlimit="10" x1="750.515" y1="31.181" x2="779.471" y2="31.181"/>
<path fill="none" stroke="#0000FF" stroke-width="0.0283" stroke-miterlimit="10" d="M741.664,35.433
	c-0.478,0.597-0.777,0.911-1.352,1.417"/>
</svg>
